<svg width="20" height="20" viewBox="0 0 20 20" fill="none" xmlns="http://www.w3.org/2000/svg">
<path fill-rule="evenodd" clip-rule="evenodd" d="M4.16663 13.5417C4.33239 13.5417 4.49136 13.6075 4.60857 13.7247C4.72578 13.842 4.79163 14.0009 4.79163 14.1667V15.8334C4.79163 15.9484 4.88496 16.0417 4.99996 16.0417H15C15.0552 16.0417 15.1082 16.0197 15.1473 15.9807C15.1863 15.9416 15.2083 15.8886 15.2083 15.8334V14.1667C15.2083 14.0009 15.2741 13.842 15.3913 13.7247C15.5086 13.6075 15.6675 13.5417 15.8333 13.5417C15.9991 13.5417 16.158 13.6075 16.2752 13.7247C16.3924 13.842 16.4583 14.0009 16.4583 14.1667V15.8334C16.4583 16.2201 16.3046 16.5911 16.0312 16.8646C15.7577 17.138 15.3867 17.2917 15 17.2917H4.99996C4.61319 17.2917 4.24225 17.138 3.96876 16.8646C3.69527 16.5911 3.54163 16.2201 3.54163 15.8334V14.1667C3.54163 14.0009 3.60747 13.842 3.72468 13.7247C3.84189 13.6075 4.00087 13.5417 4.16663 13.5417Z" fill="#4D80F9"/>
<path d="M8.94838 3.125C8.74158 3.12506 8.54231 3.20262 8.38989 3.34239C8.23747 3.48216 8.14297 3.67398 8.12504 3.88C7.99681 5.34035 7.97397 6.80804 8.05671 8.27167C7.85088 8.2825 7.64588 8.29667 7.44004 8.31083L6.19838 8.40167C6.08902 8.40968 5.98362 8.44595 5.89249 8.50691C5.80136 8.56788 5.72762 8.65147 5.67848 8.74949C5.62935 8.84751 5.6065 8.95661 5.61218 9.06611C5.61786 9.17561 5.65187 9.28175 5.71088 9.37417C6.59578 10.7593 7.73604 11.9634 9.07088 12.9225L9.56838 13.28C9.69418 13.3703 9.84516 13.4189 10 13.4189C10.1549 13.4189 10.3059 13.3703 10.4317 13.28L10.9292 12.9225C12.264 11.9634 13.4043 10.7593 14.2892 9.37417C14.3482 9.28175 14.3822 9.17561 14.3879 9.06611C14.3936 8.95661 14.3707 8.84751 14.3216 8.74949C14.2725 8.65147 14.1987 8.56788 14.1076 8.50691C14.0165 8.44595 13.9111 8.40968 13.8017 8.40167L12.56 8.31083C12.3546 8.29597 12.149 8.28292 11.9434 8.27167C12.0264 6.80806 12.0038 5.34037 11.8759 3.88C11.8579 3.67383 11.7633 3.4819 11.6107 3.34211C11.4581 3.20232 11.2587 3.12485 11.0517 3.125H8.94838Z" fill="#4D80F9"/>
</svg>
