<svg width="212" height="31" viewBox="0 0 212 31" fill="none" xmlns="http://www.w3.org/2000/svg">
<path fill-rule="evenodd" clip-rule="evenodd" d="M12.5222 16.3988L11.9029 16.5177L9.49734 14.1121C8.86577 13.4804 8.3648 12.7306 8.02302 11.9053C7.68125 11.08 7.50537 10.1955 7.50543 9.30231C7.50555 7.49834 8.22229 5.76831 9.49796 4.49279C10.7736 3.21728 12.5038 2.50077 14.3077 2.50089C16.1117 2.501 17.8417 3.21774 19.1173 4.49342L21.5216 6.89902L21.4015 7.51825L21.4003 7.52951L21.384 7.59706C21.3579 7.69967 21.3287 7.80146 21.2964 7.90229C21.2089 8.17751 21.0587 8.58407 20.8148 9.08821C20.3294 10.0965 19.4688 11.4938 17.9826 12.9787C16.4965 14.4661 15.1004 15.3255 14.0921 15.8121C13.588 16.0548 13.1789 16.2049 12.9062 16.2913C12.7833 16.3309 12.659 16.366 12.5334 16.3963L12.5222 16.3988ZM16.9256 5.59051C16.839 5.50094 16.7354 5.42952 16.6209 5.3804C16.5064 5.33129 16.3833 5.30546 16.2587 5.30444C16.1342 5.30342 16.0106 5.32721 15.8953 5.37444C15.7801 5.42167 15.6753 5.49139 15.5873 5.57952C15.4992 5.66765 15.4296 5.77244 15.3825 5.88777C15.3354 6.00309 15.3117 6.12665 15.3128 6.25122C15.314 6.3758 15.3399 6.4989 15.3891 6.61334C15.4384 6.72779 15.5099 6.83128 15.5995 6.91779L17.476 8.79423C17.5619 8.88641 17.6655 8.96035 17.7806 9.01163C17.8956 9.06291 18.0199 9.09048 18.1459 9.0927C18.2718 9.09492 18.397 9.07175 18.5138 9.02456C18.6306 8.97738 18.7367 8.90714 18.8258 8.81805C18.9149 8.72896 18.9852 8.62283 19.0323 8.50601C19.0795 8.38918 19.1027 8.26405 19.1005 8.13807C19.0983 8.0121 19.0707 7.88786 19.0194 7.77277C18.9681 7.65768 18.8942 7.5541 18.802 7.46821L16.9256 5.59051Z" fill="#5445B1"/>
<path d="M25.5297 10.9059L23.0866 8.46399L23.0828 8.474C22.9702 8.82427 22.7888 9.31464 22.5049 9.90385C21.9369 11.0835 20.9587 12.6572 19.3099 14.3072C17.6611 15.956 16.0862 16.9343 14.9065 17.5022C14.4438 17.7274 13.9661 17.9201 13.4767 18.0789L13.4679 18.0827L15.911 20.5245C16.5398 21.1688 17.2901 21.6819 18.1186 22.0339C18.9471 22.386 19.8373 22.5701 20.7375 22.5756C21.6377 22.5811 22.53 22.4078 23.3627 22.0658C24.1954 21.7238 24.952 21.2199 25.5885 20.5833C26.225 19.9467 26.7288 19.1901 27.0706 18.3573C27.4125 17.5246 27.5857 16.6322 27.5801 15.732C27.5745 14.8319 27.3903 13.9417 27.0381 13.1133C26.6859 12.2848 26.1728 11.5345 25.5284 10.9059" fill="#5445B1"/>
<path opacity="0.5" d="M8.40276 12.6823C8.69549 13.1939 9.06077 13.6755 9.49736 14.1134L15.911 20.5258C16.3476 20.9636 16.8293 21.3277 17.3409 21.6216C17.0339 23.0242 16.3305 24.309 15.3143 25.3232C14.4897 26.1472 13.4845 26.7679 12.3784 27.1359C11.2722 27.5039 10.0956 27.6092 8.94168 27.4434C7.78778 27.2777 6.68834 26.8454 5.73052 26.1809C4.7727 25.5164 3.98282 24.638 3.42349 23.6152C2.86416 22.5924 2.55077 21.4534 2.50813 20.2884C2.4655 19.1234 2.69481 17.9645 3.17789 16.9036C3.66096 15.8426 4.38452 14.9088 5.29121 14.1761C6.19791 13.4434 7.26406 12.9319 8.40276 12.6823Z" fill="#5445B1"/>
<path d="M66.8823 5.81056V25.1547H63.0024V12.5727L57.82 25.1547H54.8823L49.6722 12.5727V25.1547H45.7922V5.81056H50.1987L56.3512 20.1939L62.5036 5.81056H66.8823ZM84.9908 17.1454C84.9908 17.6997 84.9539 18.1986 84.88 18.642H73.656C73.7483 19.7505 74.1363 20.6189 74.8199 21.2471C75.5035 21.8752 76.3442 22.1893 77.3419 22.1893C78.783 22.1893 79.8084 21.5704 80.4181 20.3325H84.6028C84.1594 21.8106 83.3095 23.03 82.0532 23.9907C80.7968 24.933 79.2541 25.4041 77.425 25.4041C75.9469 25.4041 74.6167 25.0808 73.4342 24.4341C72.2703 23.769 71.3557 22.836 70.6906 21.6351C70.0439 20.4341 69.7206 19.0485 69.7206 17.478C69.7206 15.8891 70.0439 14.4942 70.6906 13.2932C71.3372 12.0923 72.2426 11.1685 73.4065 10.5219C74.5705 9.87523 75.91 9.5519 77.425 9.5519C78.8846 9.5519 80.1871 9.86599 81.3326 10.4942C82.4966 11.1223 83.3927 12.0184 84.0209 13.1824C84.6675 14.3279 84.9908 15.6489 84.9908 17.1454ZM80.9724 16.0369C80.9539 15.0392 80.5936 14.2447 79.8915 13.6535C79.1894 13.0438 78.3303 12.739 77.3142 12.739C76.3534 12.739 75.5405 13.0346 74.8754 13.6258C74.2287 14.1986 73.8315 15.0023 73.6837 16.0369H80.9724ZM86.8251 17.4226C86.8251 15.8706 87.13 14.4942 87.7397 13.2932C88.3679 12.0923 89.2177 11.1685 90.2893 10.5219C91.3609 9.87523 92.5526 9.5519 93.8644 9.5519C94.8621 9.5519 95.8136 9.77361 96.7189 10.217C97.6242 10.642 98.3448 11.2147 98.8806 11.9353V4.64658H102.816V25.1547H98.8806V22.8822C98.4002 23.6397 97.7258 24.2494 96.8575 24.7113C95.9891 25.1732 94.9822 25.4041 93.8367 25.4041C92.5434 25.4041 91.3609 25.0716 90.2893 24.4064C89.2177 23.7413 88.3679 22.8083 87.7397 21.6073C87.13 20.3879 86.8251 18.993 86.8251 17.4226ZM98.9083 17.478C98.9083 16.5357 98.7235 15.732 98.354 15.0669C97.9845 14.3833 97.4857 13.866 96.8575 13.515C96.2293 13.1454 95.5549 12.9607 94.8344 12.9607C94.1138 12.9607 93.4487 13.1362 92.839 13.4872C92.2293 13.8383 91.7305 14.3556 91.3425 15.0392C90.9729 15.7043 90.7882 16.4988 90.7882 17.4226C90.7882 18.3464 90.9729 19.1593 91.3425 19.8614C91.7305 20.545 92.2293 21.0715 92.839 21.4411C93.4672 21.8106 94.1323 21.9953 94.8344 21.9953C95.5549 21.9953 96.2293 21.8198 96.8575 21.4688C97.4857 21.0993 97.9845 20.5819 98.354 19.9168C98.7235 19.2332 98.9083 18.4203 98.9083 17.478ZM119.769 5.81056V8.9422H114.615V25.1547H110.735V8.9422H105.58V5.81056H119.769ZM126.48 12.1847C126.979 11.3718 127.626 10.7344 128.42 10.2725C129.233 9.81056 130.157 9.57962 131.191 9.57962V13.6535H130.166C128.947 13.6535 128.023 13.9399 127.395 14.5126C126.785 15.0854 126.48 16.0831 126.48 17.5057V25.1547H122.6V9.80132H126.48V12.1847ZM132.807 17.4226C132.807 15.8706 133.112 14.4942 133.722 13.2932C134.35 12.0923 135.19 11.1685 136.244 10.5219C137.315 9.87523 138.507 9.5519 139.819 9.5519C140.964 9.5519 141.962 9.78285 142.812 10.2447C143.68 10.7066 144.373 11.2886 144.89 11.9907V9.80132H148.798V25.1547H144.89V22.9099C144.391 23.6304 143.699 24.2309 142.812 24.7113C141.943 25.1732 140.936 25.4041 139.791 25.4041C138.498 25.4041 137.315 25.0716 136.244 24.4064C135.19 23.7413 134.35 22.8083 133.722 21.6073C133.112 20.3879 132.807 18.993 132.807 17.4226ZM144.89 17.478C144.89 16.5357 144.705 15.732 144.336 15.0669C143.966 14.3833 143.468 13.866 142.839 13.515C142.211 13.1454 141.537 12.9607 140.816 12.9607C140.096 12.9607 139.431 13.1362 138.821 13.4872C138.211 13.8383 137.712 14.3556 137.324 15.0392C136.955 15.7043 136.77 16.4988 136.77 17.4226C136.77 18.3464 136.955 19.1593 137.324 19.8614C137.712 20.545 138.211 21.0715 138.821 21.4411C139.449 21.8106 140.114 21.9953 140.816 21.9953C141.537 21.9953 142.211 21.8198 142.839 21.4688C143.468 21.0993 143.966 20.5819 144.336 19.9168C144.705 19.2332 144.89 18.4203 144.89 17.478ZM151.59 17.478C151.59 15.8891 151.913 14.5034 152.56 13.321C153.206 12.12 154.102 11.1962 155.248 10.5496C156.393 9.88447 157.705 9.5519 159.183 9.5519C161.086 9.5519 162.657 10.0323 163.894 10.993C165.151 11.9353 165.991 13.2655 166.416 14.9838H162.232C162.01 14.3187 161.631 13.8013 161.095 13.4318C160.578 13.0438 159.931 12.8498 159.155 12.8498C158.047 12.8498 157.169 13.2563 156.523 14.0692C155.876 14.8637 155.553 15.9999 155.553 17.478C155.553 18.9376 155.876 20.0739 156.523 20.8868C157.169 21.6812 158.047 22.0785 159.155 22.0785C160.726 22.0785 161.751 21.3764 162.232 19.9722H166.416C165.991 21.6351 165.151 22.9561 163.894 23.9353C162.638 24.9145 161.068 25.4041 159.183 25.4041C157.705 25.4041 156.393 25.0808 155.248 24.4341C154.102 23.769 153.206 22.8452 152.56 21.6628C151.913 20.4618 151.59 19.0669 151.59 17.478ZM178.349 25.1547L173.139 18.6143V25.1547H169.259V4.64658H173.139V16.314L178.293 9.80132H183.337L176.575 17.5057L183.393 25.1547H178.349ZM199.716 17.1454C199.716 17.6997 199.679 18.1986 199.605 18.642H188.381C188.473 19.7505 188.861 20.6189 189.545 21.2471C190.228 21.8752 191.069 22.1893 192.067 22.1893C193.508 22.1893 194.533 21.5704 195.143 20.3325H199.328C198.884 21.8106 198.034 23.03 196.778 23.9907C195.522 24.933 193.979 25.4041 192.15 25.4041C190.672 25.4041 189.341 25.0808 188.159 24.4341C186.995 23.769 186.081 22.836 185.415 21.6351C184.769 20.4341 184.445 19.0485 184.445 17.478C184.445 15.8891 184.769 14.4942 185.415 13.2932C186.062 12.0923 186.967 11.1685 188.131 10.5219C189.295 9.87523 190.635 9.5519 192.15 9.5519C193.609 9.5519 194.912 9.86599 196.057 10.4942C197.221 11.1223 198.117 12.0184 198.746 13.1824C199.392 14.3279 199.716 15.6489 199.716 17.1454ZM195.697 16.0369C195.679 15.0392 195.318 14.2447 194.616 13.6535C193.914 13.0438 193.055 12.739 192.039 12.739C191.078 12.739 190.265 13.0346 189.6 13.6258C188.954 14.1986 188.556 15.0023 188.408 16.0369H195.697ZM206.428 12.1847C206.926 11.3718 207.573 10.7344 208.368 10.2725C209.18 9.81056 210.104 9.57962 211.139 9.57962V13.6535H210.113C208.894 13.6535 207.97 13.9399 207.342 14.5126C206.732 15.0854 206.428 16.0831 206.428 17.5057V25.1547H202.548V9.80132H206.428V12.1847Z" fill="#354DB0"/>
</svg>
