<svg width="10" height="10" viewBox="0 0 10 10" fill="none" xmlns="http://www.w3.org/2000/svg">
<g clip-path="url(#clip0_394_402)">
<path d="M4.4051 8.33329C4.4051 8.49905 4.46796 8.65802 4.57985 8.77523C4.69174 8.89244 4.8435 8.95829 5.00174 8.95829C5.15998 8.95829 5.31173 8.89244 5.42362 8.77523C5.53552 8.65802 5.59838 8.49905 5.59838 8.33329V5.62496H8.18381C8.34205 5.62496 8.49381 5.55911 8.6057 5.4419C8.71759 5.32469 8.78045 5.16572 8.78045 4.99996C8.78045 4.8342 8.71759 4.67523 8.6057 4.55802C8.49381 4.44081 8.34205 4.37496 8.18381 4.37496H5.59838V1.66663C5.59838 1.50087 5.53552 1.34189 5.42362 1.22468C5.31173 1.10747 5.15998 1.04163 5.00174 1.04163C4.8435 1.04163 4.69174 1.10747 4.57985 1.22468C4.46796 1.34189 4.4051 1.50087 4.4051 1.66663V4.37496H1.81966C1.66142 4.37496 1.50967 4.44081 1.39777 4.55802C1.28588 4.67523 1.22302 4.8342 1.22302 4.99996C1.22302 5.16572 1.28588 5.32469 1.39777 5.4419C1.50967 5.55911 1.66142 5.62496 1.81966 5.62496H4.4051V8.33329Z" fill="#4D80F9"/>
</g>
<defs>
<clipPath id="clip0_394_402">
<rect width="9.54623" height="10" fill="white" transform="translate(0.228638)"/>
</clipPath>
</defs>
</svg>
