<svg width="14" height="14" viewBox="0 0 14 14" fill="none" xmlns="http://www.w3.org/2000/svg">
<g clip-path="url(#clip0_96_290)">
<path d="M6.12498 11.6666C6.12498 11.8987 6.21717 12.1213 6.38126 12.2854C6.54536 12.4495 6.76792 12.5416 6.99998 12.5416C7.23204 12.5416 7.4546 12.4495 7.6187 12.2854C7.78279 12.1213 7.87498 11.8987 7.87498 11.6666V7.87498H11.6666C11.8987 7.87498 12.1213 7.78279 12.2854 7.6187C12.4495 7.4546 12.5416 7.23204 12.5416 6.99998C12.5416 6.76792 12.4495 6.54536 12.2854 6.38126C12.1213 6.21717 11.8987 6.12498 11.6666 6.12498H7.87498V2.33331C7.87498 2.10125 7.78279 1.87869 7.6187 1.71459C7.4546 1.5505 7.23204 1.45831 6.99998 1.45831C6.76792 1.45831 6.54536 1.5505 6.38126 1.71459C6.21717 1.87869 6.12498 2.10125 6.12498 2.33331V6.12498H2.33331C2.10125 6.12498 1.87869 6.21717 1.71459 6.38126C1.5505 6.54536 1.45831 6.76792 1.45831 6.99998C1.45831 7.23204 1.5505 7.4546 1.71459 7.6187C1.87869 7.78279 2.10125 7.87498 2.33331 7.87498H6.12498V11.6666Z" fill="white"/>
</g>
<defs>
<clipPath id="clip0_96_290">
<rect width="14" height="14" fill="white"/>
</clipPath>
</defs>
</svg>
