<svg width="20" height="20" viewBox="0 0 20 20" fill="none" xmlns="http://www.w3.org/2000/svg">
<path d="M7.49996 4.16669H5.83329C5.39127 4.16669 4.96734 4.34228 4.65478 4.65484C4.34222 4.9674 4.16663 5.39133 4.16663 5.83335V15.8334C4.16663 16.2754 4.34222 16.6993 4.65478 17.0119C4.96734 17.3244 5.39127 17.5 5.83329 17.5H14.1666C14.6087 17.5 15.0326 17.3244 15.3451 17.0119C15.6577 16.6993 15.8333 16.2754 15.8333 15.8334V5.83335C15.8333 5.39133 15.6577 4.9674 15.3451 4.65484C15.0326 4.34228 14.6087 4.16669 14.1666 4.16669H12.5" stroke="#4D80F9" stroke-width="2" stroke-linecap="round" stroke-linejoin="round"/>
<path d="M8.33333 11.6667H11.6667M10 10V13.3333M7.5 4.16667C7.5 3.72464 7.6756 3.30072 7.98816 2.98816C8.30072 2.67559 8.72464 2.5 9.16667 2.5H10.8333C11.2754 2.5 11.6993 2.67559 12.0118 2.98816C12.3244 3.30072 12.5 3.72464 12.5 4.16667C12.5 4.60869 12.3244 5.03262 12.0118 5.34518C11.6993 5.65774 11.2754 5.83333 10.8333 5.83333H9.16667C8.72464 5.83333 8.30072 5.65774 7.98816 5.34518C7.6756 5.03262 7.5 4.60869 7.5 4.16667Z" stroke="#4D80F9" stroke-width="2" stroke-linecap="round" stroke-linejoin="round"/>
</svg>
