<svg width="22" height="21" viewBox="0 0 22 21" fill="none" xmlns="http://www.w3.org/2000/svg">
<g clip-path="url(#clip0_398_926)">
<path fill-rule="evenodd" clip-rule="evenodd" d="M19.6668 10.4001C19.6668 15.1867 15.7868 19.0667 11.0002 19.0667C6.21356 19.0667 2.3335 15.1867 2.3335 10.4001C2.3335 5.61347 6.21356 1.7334 11.0002 1.7334C15.7868 1.7334 19.6668 5.61347 19.6668 10.4001ZM15.4232 6.1937C15.5044 6.27496 15.5501 6.38516 15.5501 6.50006C15.5501 6.61497 15.5044 6.72517 15.4232 6.80643L7.40653 14.8231C7.3248 14.902 7.21534 14.9457 7.10172 14.9447C6.9881 14.9437 6.87942 14.8982 6.79907 14.8178C6.71873 14.7375 6.67316 14.6288 6.67217 14.5152C6.67118 14.4016 6.71486 14.2921 6.7938 14.2104L14.8105 6.1937C14.8917 6.11246 15.0019 6.06682 15.1168 6.06682C15.2317 6.06682 15.3419 6.11246 15.4232 6.1937Z" fill="#4D80F9"/>
</g>
<defs>
<clipPath id="clip0_398_926">
<rect width="20.8" height="20.8" fill="white" transform="translate(0.600098)"/>
</clipPath>
</defs>
</svg>
